<svg xmlns="http://www.w3.org/2000/svg" viewBox="0 0 40 40" fill="none">
  <title>Piedras Logo</title>
  <g stroke="#F59E0B" stroke-linecap="round" stroke-width="1.7">
    <path d="M5.4 29.6L7.8 32M7.8 29.6L5.4 32"/>
    <path d="M8.9 27.7L11.3 30.1M11.3 27.7L8.9 30.1"/>
    <path d="M11.9 25.2L14.3 27.6M14.3 25.2L11.9 27.6"/>
    <path d="M14.6 22.1L17 24.5M17 22.1L14.6 24.5"/>
    <path d="M17.5 18.7L19.9 21.1M19.9 18.7L17.5 21.1"/>
    <path d="M20 15.7L22.4 18.1M22.4 15.7L20 18.1"/>
    <path d="M22.6 13.4L25 15.8M25 13.4L22.6 15.8"/>
    <path d="M25.5 11.6L27.9 14M27.9 11.6L25.5 14"/>
    <path d="M28.4 10.8L30.8 13.2M30.8 10.8L28.4 13.2"/>
    <path d="M31.2 10.8L33.6 13.2M33.6 10.8L31.2 13.2"/>
    <path d="M21 18.8L23.4 21.2M23.4 18.8L21 21.2"/>
    <path d="M23.8 19.6L26.2 22M26.2 19.6L23.8 22"/>
    <path d="M26.7 20.4L29.1 22.8M29.1 20.4L26.7 22.8"/>
    <path d="M29.4 21L31.8 23.4M31.8 21L29.4 23.4"/>
    <path d="M32.3 21.8L34.7 24.2M34.7 21.8L32.3 24.2"/>
    <path d="M20.6 15.6L23 18M23 15.6L20.6 18"/>
    <path d="M23.3 15L25.7 17.4M25.7 15L23.3 17.4"/>
    <path d="M26.1 14.5L28.5 16.9M28.5 14.5L26.1 16.9"/>
    <path d="M28.8 14.1L31.2 16.5M31.2 14.1L28.8 16.5"/>
  </g>
</svg>
