<svg xmlns="http://www.w3.org/2000/svg" viewBox="0 0 64 64" fill="none">
  <rect width="64" height="64" rx="18" fill="#181412"/>
  <g stroke="#F59E0B" stroke-linecap="round" stroke-width="2.3">
    <path d="M11.4 43.6L14.4 46.6M14.4 43.6L11.4 46.6"/>
    <path d="M15.2 41.2L18.2 44.2M18.2 41.2L15.2 44.2"/>
    <path d="M18.8 38L21.8 41M21.8 38L18.8 41"/>
    <path d="M22.2 34.2L25.2 37.2M25.2 34.2L22.2 37.2"/>
    <path d="M25.8 30L28.8 33M28.8 30L25.8 33"/>
    <path d="M29 26.5L32 29.5M32 26.5L29 29.5"/>
    <path d="M32.4 23.6L35.4 26.6M35.4 23.6L32.4 26.6"/>
    <path d="M36.1 21.8L39.1 24.8M39.1 21.8L36.1 24.8"/>
    <path d="M39.8 20.7L42.8 23.7M42.8 20.7L39.8 23.7"/>
    <path d="M43.5 20.7L46.5 23.7M46.5 20.7L43.5 23.7"/>
    <path d="M29.5 30.2L32.5 33.2M32.5 30.2L29.5 33.2"/>
    <path d="M33.1 31.1L36.1 34.1M36.1 31.1L33.1 34.1"/>
    <path d="M36.8 32.1L39.8 35.1M39.8 32.1L36.8 35.1"/>
    <path d="M40.4 33L43.4 36M43.4 33L40.4 36"/>
    <path d="M44.1 34.1L47.1 37.1M47.1 34.1L44.1 37.1"/>
    <path d="M28.9 26L31.9 29M31.9 26L28.9 29"/>
    <path d="M32.5 25.3L35.5 28.3M35.5 25.3L32.5 28.3"/>
    <path d="M36 24.7L39 27.7M39 24.7L36 27.7"/>
    <path d="M39.5 24.4L42.5 27.4M42.5 24.4L39.5 27.4"/>
  </g>
</svg>
